# xmcd
#
# Track frame offsets: 
#        150
#        17770
#        35843
#        61229
#
# Disc length: 1036 seconds
#
# Revision: 0
# Processed by: cddbd v1.5.2PL0 Copyright (c) Steve Scherf et al.
# Submitted via: ExactAudioCopy v1.0b3
#
DISCID=2e040a04
DTITLE=Kiki - We Belong
DYEAR=1900
DGENRE=
TTITLE0=We Belong (Radio Edit)
TTITLE1=We Belong (Club Cut)
TTITLE2=We Belong (Maxi Version)
TTITLE3=Running For Your Love
EXTD=
EXTT0=
EXTT1=
EXTT2=
EXTT3=
PLAYORDER=
